<svg height='300px' width='300px'  fill="#000000" xmlns="http://www.w3.org/2000/svg" xmlns:xlink="http://www.w3.org/1999/xlink" version="1.1" x="0px" y="0px" viewBox="0 0 90 90" enable-background="new 0 0 90 90" xml:space="preserve"><g><path d="M72.108,68.638H16.375c-3.556,0-6.441,2.885-6.441,6.441s2.885,6.441,6.441,6.441h55.732c3.556,0,6.441-2.885,6.441-6.441   S75.664,68.638,72.108,68.638z"></path><path d="M39.687,61.136c1.208,1.208,2.847,1.887,4.554,1.887s3.346-0.679,4.554-1.887L71.86,38.07c2.516-2.516,2.516-6.594,0-9.108   c-2.516-2.516-6.592-2.516-9.108,0l-12.069,12.07V11.984c0-3.558-2.885-6.441-6.441-6.441S37.8,8.425,37.8,11.984v29.048   l-12.069-12.07c-2.516-2.516-6.592-2.516-9.108,0c-2.516,2.514-2.516,6.592,0,9.108L39.687,61.136z"></path></g></svg>